<mxfile host="app.diagrams.net" agent="Mozilla/5.0 (Windows NT 10.0; Win64; x64) AppleWebKit/537.36 (KHTML, like Gecko) Chrome/136.0.0.0 Safari/537.36" version="27.1.1">
  <diagram name="Página-1" id="B14JYSxBUoS9n0Hpej6M">
    <mxGraphModel dx="780" dy="424" grid="1" gridSize="10" guides="1" tooltips="1" connect="1" arrows="1" fold="1" page="1" pageScale="1" pageWidth="827" pageHeight="1169" math="0" shadow="0">
      <root>
        <mxCell id="0" />
        <mxCell id="1" parent="0" />
        <mxCell id="-8a98OupwYKfR2sjS9-V-54" value="Login de usuário" style="ellipse;whiteSpace=wrap;html=1;" vertex="1" parent="1">
          <mxGeometry x="354" y="20" width="106" height="50" as="geometry" />
        </mxCell>
        <mxCell id="-8a98OupwYKfR2sjS9-V-62" value="Cadastro dos itens" style="ellipse;whiteSpace=wrap;html=1;" vertex="1" parent="1">
          <mxGeometry x="354" y="114" width="106" height="50" as="geometry" />
        </mxCell>
        <mxCell id="-8a98OupwYKfR2sjS9-V-63" value="" style="ellipse;whiteSpace=wrap;html=1;" vertex="1" parent="1">
          <mxGeometry x="354" y="174" width="106" height="50" as="geometry" />
        </mxCell>
        <mxCell id="-8a98OupwYKfR2sjS9-V-64" value="" style="ellipse;whiteSpace=wrap;html=1;" vertex="1" parent="1">
          <mxGeometry x="354" y="234" width="106" height="50" as="geometry" />
        </mxCell>
        <mxCell id="-8a98OupwYKfR2sjS9-V-65" value="" style="ellipse;whiteSpace=wrap;html=1;" vertex="1" parent="1">
          <mxGeometry x="354" y="294" width="106" height="50" as="geometry" />
        </mxCell>
        <mxCell id="-8a98OupwYKfR2sjS9-V-66" value="" style="ellipse;whiteSpace=wrap;html=1;" vertex="1" parent="1">
          <mxGeometry x="354" y="354" width="106" height="50" as="geometry" />
        </mxCell>
        <mxCell id="-8a98OupwYKfR2sjS9-V-67" value="" style="ellipse;whiteSpace=wrap;html=1;" vertex="1" parent="1">
          <mxGeometry x="354" y="414" width="106" height="50" as="geometry" />
        </mxCell>
        <mxCell id="-8a98OupwYKfR2sjS9-V-68" value="" style="ellipse;whiteSpace=wrap;html=1;" vertex="1" parent="1">
          <mxGeometry x="354" y="474" width="106" height="50" as="geometry" />
        </mxCell>
        <mxCell id="-8a98OupwYKfR2sjS9-V-69" value="" style="ellipse;whiteSpace=wrap;html=1;" vertex="1" parent="1">
          <mxGeometry x="354" y="534" width="106" height="50" as="geometry" />
        </mxCell>
        <mxCell id="-8a98OupwYKfR2sjS9-V-70" value="Docente" style="shape=umlActor;verticalLabelPosition=bottom;verticalAlign=top;html=1;outlineConnect=0;" vertex="1" parent="1">
          <mxGeometry x="220" y="15" width="30" height="60" as="geometry" />
        </mxCell>
        <mxCell id="-8a98OupwYKfR2sjS9-V-71" value="Aluno" style="shape=umlActor;verticalLabelPosition=bottom;verticalAlign=top;html=1;outlineConnect=0;" vertex="1" parent="1">
          <mxGeometry x="600" y="15" width="30" height="60" as="geometry" />
        </mxCell>
        <mxCell id="-8a98OupwYKfR2sjS9-V-72" value="" style="endArrow=none;html=1;rounded=0;entryX=0;entryY=0.3333333333333333;entryDx=0;entryDy=0;entryPerimeter=0;exitX=1.017;exitY=0.411;exitDx=0;exitDy=0;exitPerimeter=0;" edge="1" parent="1" source="-8a98OupwYKfR2sjS9-V-54" target="-8a98OupwYKfR2sjS9-V-71">
          <mxGeometry width="50" height="50" relative="1" as="geometry">
            <mxPoint x="420" y="210" as="sourcePoint" />
            <mxPoint x="470" y="160" as="targetPoint" />
          </mxGeometry>
        </mxCell>
        <mxCell id="-8a98OupwYKfR2sjS9-V-73" value="" style="endArrow=none;html=1;rounded=0;entryX=1;entryY=0.3333333333333333;entryDx=0;entryDy=0;entryPerimeter=0;exitX=0.006;exitY=0.402;exitDx=0;exitDy=0;exitPerimeter=0;" edge="1" parent="1" source="-8a98OupwYKfR2sjS9-V-54" target="-8a98OupwYKfR2sjS9-V-70">
          <mxGeometry width="50" height="50" relative="1" as="geometry">
            <mxPoint x="420" y="210" as="sourcePoint" />
            <mxPoint x="470" y="160" as="targetPoint" />
          </mxGeometry>
        </mxCell>
        <mxCell id="-8a98OupwYKfR2sjS9-V-74" value="" style="endArrow=none;html=1;rounded=0;entryX=1;entryY=0.3333333333333333;entryDx=0;entryDy=0;entryPerimeter=0;exitX=0;exitY=0.5;exitDx=0;exitDy=0;" edge="1" parent="1" source="-8a98OupwYKfR2sjS9-V-62" target="-8a98OupwYKfR2sjS9-V-70">
          <mxGeometry width="50" height="50" relative="1" as="geometry">
            <mxPoint x="420" y="210" as="sourcePoint" />
            <mxPoint x="470" y="160" as="targetPoint" />
          </mxGeometry>
        </mxCell>
        <mxCell id="-8a98OupwYKfR2sjS9-V-76" value="&amp;lt;&amp;lt;include&amp;gt;&amp;gt;" style="endArrow=open;endSize=12;dashed=1;html=1;rounded=0;exitX=0.5;exitY=1;exitDx=0;exitDy=0;entryX=0.5;entryY=0;entryDx=0;entryDy=0;" edge="1" parent="1" source="-8a98OupwYKfR2sjS9-V-54" target="-8a98OupwYKfR2sjS9-V-62">
          <mxGeometry width="160" relative="1" as="geometry">
            <mxPoint x="310" y="330" as="sourcePoint" />
            <mxPoint x="470" y="330" as="targetPoint" />
          </mxGeometry>
        </mxCell>
      </root>
    </mxGraphModel>
  </diagram>
</mxfile>
